# xmcd CD database file
#
# Track frame offsets:
#	150
#	21710
#	36595
#	56800
#	74550
#	96325
#	115018
#	128583
#	153768
#	171388
#
# Disc length: 2568 seconds
#
# Revision: 2
# Processed by: cddbd v1.5.2PL0 Copyright (c) Steve Scherf et al.
# Submitted via: CDex 1.51
#
DISCID=910a060a
DTITLE=Gerald Jay Markoe - Pleiadian Danses
DYEAR=1990
DGENRE=New Age
TTITLE0=2 Moons Rising
TTITLE1=Dancing on the Wind
TTITLE2=Bubbling Springs of Blue Light and Energy
TTITLE3=Dawn in a Pleiadian Forest
TTITLE4=Danse of Power
TTITLE5=Danse of Universal Love
TTITLE6=Pleiadian Children in a Magic Garden
TTITLE7=Gravity Bypass
TTITLE8=Centering Danse
TTITLE9=Melody of the Pleiades
EXTD=YEAR: 1990
EXTT0=
EXTT1=
EXTT2=
EXTT3=
EXTT4=
EXTT5=
EXTT6=
EXTT7=
EXTT8=
EXTT9=
PLAYORDER=
